<?xml version="1.0" standalone="no"?><!DOCTYPE svg PUBLIC "-//W3C//DTD SVG 1.1//EN" "http://www.w3.org/Graphics/SVG/1.1/DTD/svg11.dtd"><svg t="1711763667097" class="icon" viewBox="0 0 1024 1024" version="1.1" xmlns="http://www.w3.org/2000/svg" p-id="4506" width="32" height="32" xmlns:xlink="http://www.w3.org/1999/xlink"><path d="M512.6 925.3c-57.1 0-112.6-11.2-164.8-33.3-50.4-21.3-95.7-51.8-134.6-90.7-38.9-38.9-69.4-84.1-90.7-134.6-22-52.1-33.2-107.5-33.2-164.7 0-57.1 11.2-112.6 33.3-164.8 21.3-50.4 51.8-95.7 90.7-134.6 38.9-38.9 84.1-69.4 134.6-90.7 52.2-22.1 107.6-33.3 164.8-33.3 57.1 0 112.6 11.2 164.8 33.3 50.4 21.3 95.7 51.8 134.6 90.7 38.9 38.9 69.4 84.1 90.7 134.6 22 52.2 33.2 107.7 33.2 164.8 0 57.1-11.2 112.6-33.3 164.8-21.3 50.4-51.8 95.7-90.7 134.6-38.9 38.9-84.1 69.4-134.6 90.7-52.2 22-107.6 33.2-164.8 33.2z m0-810.5c-213.5 0-387.3 173.7-387.3 387.3 0 213.5 173.7 387.3 387.3 387.3 213.5 0 387.3-173.7 387.3-387.3 0-213.6-173.7-387.3-387.3-387.3z" fill="#353535" p-id="4507"></path><path d="M512.6 502m-256.1 0a256.1 256.1 0 1 0 512.2 0 256.1 256.1 0 1 0-512.2 0Z" fill="#FEE632" p-id="4508"></path><path d="M477.1 639.8c-9.9 9.9-25.9 9.9-35.8 0L333.9 532.4c-9.9-9.9-9.9-25.9 0-35.8 9.9-9.9 25.9-9.9 35.8 0L477.1 604c9.9 9.9 9.9 26 0 35.8z" fill="#353535" p-id="4509"></path><path d="M704.1 377c9.9 9.9 9.9 25.9 0 35.8L477.3 639.7c-9.9 9.9-25.9 9.9-35.8 0-9.9-9.9-9.9-25.9 0-35.8L668.3 377c9.9-9.8 25.9-9.8 35.8 0z" fill="#353535" p-id="4510"></path></svg>